<?xml version="1.0" standalone="no"?>
<!DOCTYPE svg PUBLIC "-//W3C//DTD SVG 20010904//EN"
 "http://www.w3.org/TR/2001/REC-SVG-20010904/DTD/svg10.dtd">
<svg version="1.0" xmlns="http://www.w3.org/2000/svg"
 width="700.000000pt" height="700.000000pt" viewBox="0 0 700.000000 700.000000"
 preserveAspectRatio="xMidYMid meet">
<metadata>
Created by potrace 1.11, written by Peter Selinger 2001-2013
</metadata>
<g transform="translate(0.000000,700.000000) scale(0.100000,-0.100000)"
fill="#000000" stroke="none">
<path d="M0 3500 l0 -3500 3500 0 3500 0 0 3500 0 3500 -3500 0 -3500 0 0
-3500z m3893 2936 c280 -39 509 -104 697 -194 426 -205 677 -539 745 -987 20
-132 20 -407 -1 -542 -61 -412 -266 -710 -599 -868 -76 -36 -245 -91 -312
-101 -24 -4 -43 -10 -43 -14 0 -4 26 -13 58 -20 150 -33 386 -135 517 -223
216 -145 402 -363 506 -593 164 -362 184 -882 50 -1284 -172 -511 -634 -876
-1271 -1004 -308 -62 -243 -59 -1597 -63 l-1243 -4 0 2961 0 2961 1188 -4
c1048 -3 1201 -6 1305 -21z"/>
<path d="M2200 4910 l0 -891 743 4 c641 3 754 6 827 21 377 74 588 213 700
460 90 198 104 495 34 719 -39 125 -86 201 -183 297 -72 72 -102 94 -191 138
-107 53 -218 89 -370 118 -73 15 -187 18 -822 21 l-738 4 0 -891z"/>
<path d="M2200 2285 l0 -1086 798 4 c864 4 844 3 1057 62 118 33 294 121 372
185 162 132 265 325 308 576 22 130 22 394 0 518 -74 415 -307 660 -727 765
-201 51 -254 53 -1055 58 l-753 5 0 -1087z"/>
</g>
</svg>
