<?xml version="1.0" standalone="no"?>
<!DOCTYPE svg PUBLIC "-//W3C//DTD SVG 20010904//EN"
 "http://www.w3.org/TR/2001/REC-SVG-20010904/DTD/svg10.dtd">
<svg version="1.0" xmlns="http://www.w3.org/2000/svg"
 width="700.000000pt" height="700.000000pt" viewBox="0 0 700.000000 700.000000"
 preserveAspectRatio="xMidYMid meet">
<metadata>
Created by potrace 1.11, written by Peter Selinger 2001-2013
</metadata>
<g transform="translate(0.000000,700.000000) scale(0.100000,-0.100000)"
fill="#000000" stroke="none">
<path d="M2518 6995 c-2 -2 -73 -6 -158 -9 -149 -6 -189 -9 -365 -22 -164 -12
-191 -14 -235 -18 -25 -3 -74 -8 -110 -12 -36 -3 -78 -8 -95 -10 -16 -2 -55
-6 -85 -10 -87 -9 -396 -62 -440 -75 l-40 -12 0 -3332 c0 -2658 3 -3332 13
-3332 6 0 53 -10 102 -21 108 -25 118 -26 315 -52 180 -24 211 -27 305 -36 39
-3 86 -7 105 -9 44 -5 165 -15 250 -20 407 -28 1188 -28 1475 0 22 2 69 7 105
10 89 9 150 15 180 20 14 2 61 9 105 15 44 6 118 18 165 26 47 9 99 18 115 21
132 22 563 150 590 174 5 5 15 9 22 9 14 0 186 82 268 128 455 253 763 675
858 1177 35 184 41 252 41 465 1 148 -3 211 -18 330 -29 224 -116 464 -227
625 -98 142 -253 289 -434 410 -168 113 -287 168 -609 284 -14 5 11 22 105 68
272 134 479 313 628 543 102 157 177 376 208 605 10 76 10 431 0 510 -56 455
-283 816 -672 1073 -287 190 -659 329 -1045 391 -36 6 -74 13 -86 15 -12 2
-45 7 -74 11 -29 4 -61 8 -70 10 -9 2 -50 6 -91 10 -40 4 -76 8 -79 10 -3 1
-57 6 -120 10 -63 4 -133 9 -155 11 -43 5 -743 12 -747 9z m652 -809 c58 -4
121 -9 140 -11 19 -3 60 -7 90 -10 151 -17 374 -66 510 -112 134 -45 352 -157
431 -220 69 -55 137 -127 185 -195 75 -106 102 -170 141 -330 2 -13 6 -84 8
-158 7 -307 -74 -523 -269 -715 -216 -213 -541 -337 -996 -380 -36 -3 -90 -8
-120 -11 -30 -3 -345 -7 -700 -8 l-646 -3 1 1058 c0 581 2 1060 5 1062 3 3 43
8 90 12 47 4 99 9 115 11 17 2 122 6 235 10 113 4 206 7 207 8 6 4 488 -3 573
-8z m415 -2939 c17 -2 59 -8 95 -11 694 -74 1088 -301 1261 -727 79 -193 97
-512 43 -744 -58 -245 -201 -448 -439 -623 -92 -67 -384 -195 -496 -217 -9 -2
-52 -13 -95 -24 -139 -36 -244 -53 -399 -66 -38 -4 -75 -8 -82 -10 -33 -11
-355 -20 -678 -20 -327 0 -449 4 -660 21 -62 5 -106 8 -170 13 -21 1 -21 2
-21 1212 l1 1211 805 -5 c443 -3 819 -7 835 -10z"/>
</g>
</svg>
