<?xml version="1.0" standalone="no"?>
<!DOCTYPE svg PUBLIC "-//W3C//DTD SVG 20010904//EN"
 "http://www.w3.org/TR/2001/REC-SVG-20010904/DTD/svg10.dtd">
<svg version="1.0" xmlns="http://www.w3.org/2000/svg"
 width="700.000000pt" height="700.000000pt" viewBox="0 0 700.000000 700.000000"
 preserveAspectRatio="xMidYMid meet">
<metadata>
Created by potrace 1.11, written by Peter Selinger 2001-2013
</metadata>
<g transform="translate(0.000000,700.000000) scale(0.100000,-0.100000)"
fill="#000000" stroke="none">
<path d="M3298 6995 c-2 -2 -41 -6 -88 -9 -47 -3 -95 -8 -107 -10 -12 -3 -48
-7 -79 -11 -31 -3 -100 -15 -153 -26 -53 -11 -107 -22 -121 -25 -93 -18 -309
-86 -472 -147 -77 -29 -364 -170 -453 -222 l-60 -35 -262 0 c-145 0 -263 -2
-263 -6 0 -6 46 -108 95 -209 l33 -70 -36 -34 c-171 -157 -305 -296 -401 -416
-31 -38 -59 -72 -62 -75 -16 -14 -184 -268 -233 -354 -179 -310 -303 -633
-372 -966 -26 -128 -31 -156 -39 -219 -3 -23 -7 -55 -9 -70 -26 -163 -27 -665
-2 -787 2 -11 7 -47 10 -79 4 -32 11 -78 16 -102 6 -24 13 -60 16 -81 13 -85
90 -370 124 -457 60 -155 126 -305 183 -415 75 -146 112 -207 247 -404 22 -32
103 -139 117 -154 7 -7 29 -34 50 -59 71 -89 229 -250 331 -338 l42 -37 -154
-302 c-345 -676 -390 -763 -411 -801 -12 -22 -24 -48 -28 -57 -6 -17 36 -18
796 -18 l802 0 70 187 71 188 786 1 786 1 32 -71 c18 -39 48 -102 65 -141 18
-38 42 -91 54 -117 l21 -48 636 0 c533 0 635 2 631 14 -3 7 -56 101 -118 207
-62 107 -120 209 -131 226 -10 18 -28 50 -39 70 -12 21 -33 58 -47 83 -14 25
-35 61 -47 80 -12 19 -29 49 -38 67 l-17 31 83 48 c733 421 1287 1126 1521
1934 64 222 105 438 123 656 14 165 7 577 -12 673 -2 12 -7 44 -10 69 -17 151
-76 399 -139 587 -68 202 -157 399 -273 605 -38 69 -201 313 -231 346 -9 11
-33 40 -52 64 -55 71 -61 78 -135 158 -125 135 -263 265 -380 358 -27 21 -52
41 -55 44 -9 9 -135 98 -212 148 -165 108 -374 217 -562 292 -307 122 -584
189 -926 226 -50 6 -507 13 -512 9z"/>
</g>
</svg>
