<?xml version="1.0" standalone="no"?>
<!DOCTYPE svg PUBLIC "-//W3C//DTD SVG 20010904//EN"
 "http://www.w3.org/TR/2001/REC-SVG-20010904/DTD/svg10.dtd">
<svg version="1.0" xmlns="http://www.w3.org/2000/svg"
 width="700.000000pt" height="700.000000pt" viewBox="0 0 700.000000 700.000000"
 preserveAspectRatio="xMidYMid meet">
<metadata>
Created by potrace 1.11, written by Peter Selinger 2001-2013
</metadata>
<g transform="translate(0.000000,700.000000) scale(0.100000,-0.100000)"
fill="#000000" stroke="none">
<path d="M1166 6979 c-449 -79 -826 -362 -1025 -768 -22 -45 -40 -83 -40 -84
0 -1 -2 -9 -5 -17 -38 -108 -54 -160 -51 -160 3 0 0 -11 -5 -24 -5 -13 -12
-44 -15 -67 -4 -24 -11 -69 -15 -99 -5 -30 -9 -1049 -9 -2265 0 -2376 -2
-2271 50 -2465 102 -380 368 -703 727 -884 104 -52 262 -103 389 -125 104 -18
194 -19 2358 -17 2099 2 2255 3 2330 19 44 10 85 19 90 21 6 2 24 6 40 10 17
4 39 11 50 16 11 4 43 16 70 25 28 10 90 38 138 63 342 174 604 500 707 877
50 182 49 105 49 2481 0 1281 -3 2235 -9 2255 -4 19 -11 52 -14 74 -17 133
-98 351 -179 480 -135 218 -323 395 -539 510 -78 41 -308 131 -308 120 0 -2
-11 0 -25 5 -14 5 -46 12 -72 16 -27 3 -66 10 -88 14 -22 5 -1018 9 -2265 9
-2146 -1 -2229 -1 -2334 -20z"/>
</g>
</svg>
