<?xml version="1.0" standalone="no"?>
<!DOCTYPE svg PUBLIC "-//W3C//DTD SVG 20010904//EN"
 "http://www.w3.org/TR/2001/REC-SVG-20010904/DTD/svg10.dtd">
<svg version="1.0" xmlns="http://www.w3.org/2000/svg"
 width="700.000000pt" height="700.000000pt" viewBox="0 0 700.000000 700.000000"
 preserveAspectRatio="xMidYMid meet">
<metadata>
Created by potrace 1.11, written by Peter Selinger 2001-2013
</metadata>
<g transform="translate(0.000000,700.000000) scale(0.100000,-0.100000)"
fill="#000000" stroke="none">
<path d="M1958 6995 c-2 -1 -79 -5 -173 -9 -93 -4 -197 -9 -230 -11 -145 -10
-212 -15 -240 -19 -16 -2 -61 -7 -100 -11 -38 -4 -77 -9 -85 -10 -8 -2 -49 -6
-90 -10 -41 -4 -84 -9 -95 -11 -10 -2 -37 -6 -60 -10 -40 -6 -273 -49 -310
-57 -317 -74 -513 -165 -564 -264 -8 -16 -11 -596 -11 -2180 0 -2083 1 -2159
19 -2188 31 -50 68 -81 145 -119 70 -35 267 -106 292 -106 7 0 25 -5 40 -10
26 -10 26 -11 8 -31 -18 -20 -19 -52 -20 -762 -1 -408 2 -752 7 -764 14 -37
85 -101 147 -132 160 -81 455 -157 792 -205 61 -9 182 -22 280 -32 36 -3 76
-8 90 -10 14 -2 61 -7 105 -9 44 -3 105 -8 135 -10 330 -25 1090 -25 1430 0
30 2 96 7 145 10 50 3 104 8 120 10 34 5 89 11 185 20 55 6 168 22 355 50 22
4 99 19 170 35 308 69 494 147 563 238 l27 35 3 340 c1 187 3 341 5 343 1 1
72 5 157 9 85 3 173 8 195 10 22 1 88 6 146 9 58 4 117 9 130 11 13 2 56 7 94
10 39 4 81 8 95 10 14 1 52 5 85 9 33 4 71 9 85 11 14 2 45 7 70 10 42 5 59 8
120 20 14 3 41 8 60 11 255 40 556 143 651 223 75 62 69 -66 69 1549 l0 1450
-27 34 c-43 51 -61 64 -159 112 -135 68 -392 136 -671 180 -64 10 -181 26
-223 31 -25 2 -70 7 -100 10 -30 4 -71 8 -90 10 -86 9 -160 16 -220 19 -365
22 -416 24 -725 26 l-230 1 1 837 c1 663 -1 844 -12 869 -7 18 -29 48 -48 67
-34 32 -172 107 -226 121 -14 3 -34 10 -45 15 -43 17 -221 64 -330 85 -16 3
-39 8 -50 10 -39 8 -201 35 -240 40 -77 10 -211 24 -275 30 -36 4 -76 8 -90
10 -27 5 -112 11 -260 20 -52 4 -126 8 -165 11 -70 5 -852 13 -857 9z"/>
</g>
</svg>
