<?xml version="1.0" standalone="no"?>
<!DOCTYPE svg PUBLIC "-//W3C//DTD SVG 20010904//EN"
 "http://www.w3.org/TR/2001/REC-SVG-20010904/DTD/svg10.dtd">
<svg version="1.0" xmlns="http://www.w3.org/2000/svg"
 width="700.000000pt" height="700.000000pt" viewBox="0 0 700.000000 700.000000"
 preserveAspectRatio="xMidYMid meet">
<metadata>
Created by potrace 1.11, written by Peter Selinger 2001-2013
</metadata>
<g transform="translate(0.000000,700.000000) scale(0.100000,-0.100000)"
fill="#000000" stroke="none">
<path d="M3490 6981 c0 -5 -6 -16 -13 -23 -7 -7 -28 -33 -47 -58 -146 -191
-356 -311 -855 -489 -110 -40 -207 -75 -215 -78 -8 -3 -17 -7 -20 -7 -16 -4
-163 -62 -210 -83 -30 -14 -73 -32 -95 -41 -22 -8 -45 -19 -52 -24 -6 -5 -40
-23 -75 -41 -152 -77 -320 -212 -417 -337 -54 -69 -135 -234 -156 -320 -10
-36 -18 -98 -18 -137 l-1 -73 -658 0 -658 0 0 -2635 0 -2635 3500 0 3500 0 0
2635 0 2635 -659 0 -659 0 2 63 c5 209 -133 462 -354 648 -50 42 -218 156
-230 156 -3 0 -25 11 -50 23 -70 37 -253 120 -263 120 -5 0 -23 6 -40 14 -46
20 -121 48 -287 106 -80 28 -154 55 -165 60 -11 5 -47 18 -80 30 -33 11 -69
25 -80 30 -11 5 -45 19 -75 32 -145 59 -318 166 -404 248 -28 27 -73 80 -101
119 -47 66 -65 84 -65 62z"/>
</g>
</svg>
