<?xml version="1.0" standalone="no"?>
<!DOCTYPE svg PUBLIC "-//W3C//DTD SVG 20010904//EN"
 "http://www.w3.org/TR/2001/REC-SVG-20010904/DTD/svg10.dtd">
<svg version="1.0" xmlns="http://www.w3.org/2000/svg"
 width="700.000000pt" height="700.000000pt" viewBox="0 0 700.000000 700.000000"
 preserveAspectRatio="xMidYMid meet">
<metadata>
Created by potrace 1.11, written by Peter Selinger 2001-2013
</metadata>
<g transform="translate(0.000000,700.000000) scale(0.100000,-0.100000)"
fill="#000000" stroke="none">
<path d="M3453 6929 c-162 -212 -366 -335 -823 -499 -255 -91 -443 -161 -498
-186 -29 -13 -55 -24 -59 -24 -5 0 -139 -67 -203 -102 -123 -66 -292 -207
-371 -308 -110 -141 -180 -318 -182 -462 l-1 -78 -658 0 -658 0 0 -2635 0
-2635 3500 0 3500 0 0 2635 0 2635 -647 1 c-357 1 -653 1 -660 0 -8 -1 -11 19
-10 61 3 217 -137 473 -358 654 -59 48 -220 154 -235 154 -6 0 -27 10 -48 23
-20 13 -86 45 -147 71 -146 63 -154 66 -505 192 -118 42 -233 84 -255 94 -22
9 -60 25 -85 36 -135 57 -307 162 -387 236 -25 24 -72 78 -104 122 l-57 78
-49 -63z"/>
</g>
</svg>
