<?xml version="1.0" standalone="no"?>
<!DOCTYPE svg PUBLIC "-//W3C//DTD SVG 20010904//EN"
 "http://www.w3.org/TR/2001/REC-SVG-20010904/DTD/svg10.dtd">
<svg version="1.0" xmlns="http://www.w3.org/2000/svg"
 width="260.000000pt" height="260.000000pt" viewBox="0 0 260.000000 260.000000"
 preserveAspectRatio="xMidYMid meet">
<metadata>
Created by potrace 1.11, written by Peter Selinger 2001-2013
</metadata>
<g transform="translate(0.000000,260.000000) scale(0.100000,-0.100000)"
fill="#000000" stroke="none">
<path d="M258 2592 c-27 -2 -48 -7 -48 -12 0 -5 14 -18 30 -30 17 -12 35 -31
41 -43 25 -46 15 -80 -102 -354 -143 -335 -169 -450 -174 -773 -6 -388 34
-649 135 -890 77 -186 264 -490 301 -490 12 0 12 35 0 58 -40 76 -96 228 -161
437 -26 84 -58 253 -68 355 -11 119 -7 417 7 510 53 355 202 725 368 913 65
74 168 138 248 153 29 5 36 2 52 -22 16 -25 18 -51 18 -216 0 -249 18 -231
-231 -232 l-188 -1 -23 -59 c-12 -33 -24 -71 -25 -85 -3 -24 0 -26 32 -23 19
1 120 4 225 7 175 5 190 4 196 -12 7 -20 4 -616 -6 -957 -11 -409 -22 -499
-76 -586 -18 -29 -25 -48 -18 -55 5 -5 93 -10 209 -10 211 0 239 6 212 43 -32
46 -43 78 -49 150 -15 172 1 1633 22 1967 7 108 12 131 46 195 l29 55 -28 7
c-25 7 -867 7 -974 0z"/>
<path d="M1375 2592 c-65 -4 -70 -8 -50 -40 10 -15 29 -39 43 -54 l25 -27 -1
-833 c0 -458 -1 -939 -2 -1069 -1 -263 -1 -260 -73 -340 -25 -27 -35 -45 -28
-52 11 -11 446 -16 457 -4 5 4 3 17 -4 28 -45 71 -53 101 -60 201 -9 142 -8
1157 1 1190 11 40 61 88 94 89 75 3 147 -23 217 -80 173 -139 372 -479 426
-726 37 -168 -16 -442 -136 -701 -65 -143 -73 -163 -64 -169 11 -7 64 46 124
124 108 141 197 347 236 546 16 79 21 264 9 345 -15 109 -19 134 -24 150 -2 8
-6 26 -9 40 -8 51 -28 116 -47 157 -10 24 -19 46 -19 51 0 21 -125 196 -184
259 -65 70 -198 168 -283 212 -24 12 -43 27 -43 34 0 7 37 60 83 117 45 58
131 173 191 255 60 83 133 178 163 213 82 98 86 96 -144 89 -207 -7 -243 -11
-243 -31 0 -7 19 -28 41 -46 l42 -33 -5 -61 c-14 -165 -283 -526 -392 -526
l-26 0 0 243 c0 275 7 317 64 383 20 23 31 45 27 52 -7 11 -302 22 -406 14z"/>
</g>
</svg>
