<?xml version="1.0" standalone="no"?>
<!DOCTYPE svg PUBLIC "-//W3C//DTD SVG 20010904//EN"
 "http://www.w3.org/TR/2001/REC-SVG-20010904/DTD/svg10.dtd">
<svg version="1.0" xmlns="http://www.w3.org/2000/svg"
 width="700.000000pt" height="700.000000pt" viewBox="0 0 700.000000 700.000000"
 preserveAspectRatio="xMidYMid meet">
<metadata>
Created by potrace 1.11, written by Peter Selinger 2001-2013
</metadata>
<g transform="translate(0.000000,700.000000) scale(0.100000,-0.100000)"
fill="#000000" stroke="none">
<path d="M1019 6978 c0 -13 -1 -1587 -1 -3498 l-1 -3475 1384 0 c1222 0 1517
4 1634 20 158 22 195 27 225 32 19 3 91 18 160 33 524 119 913 344 1193 691
186 229 317 561 352 886 3 27 7 68 10 93 6 54 6 339 0 395 -9 86 -16 144 -20
163 -2 11 -6 37 -9 58 -12 74 -59 239 -92 320 -221 550 -663 916 -1284 1064
l-55 13 100 22 c230 50 440 145 594 269 65 51 184 181 232 252 91 135 174 333
203 484 3 14 10 50 16 80 18 93 25 197 25 395 0 264 -16 379 -81 574 -116 350
-328 609 -664 811 -140 85 -382 189 -500 216 -8 1 -31 8 -50 14 -19 5 -89 21
-155 34 -140 29 -193 37 -320 51 -33 4 -73 9 -90 12 -16 3 -654 7 -1417 10
l-1388 4 -1 -23z m2513 -762 c574 -25 950 -216 1113 -568 38 -83 72 -204 83
-293 13 -112 6 -364 -12 -445 -9 -41 -19 -86 -22 -100 -3 -13 -19 -58 -36 -99
-87 -209 -255 -370 -488 -469 -93 -39 -271 -88 -355 -97 -120 -14 -153 -18
-170 -23 -11 -3 -394 -7 -850 -9 l-830 -5 0 1054 0 1053 90 5 c115 6 1309 3
1477 -4z m158 -2880 c52 -4 111 -9 130 -11 19 -2 58 -7 85 -11 233 -28 493
-124 651 -242 253 -188 385 -450 420 -837 27 -289 -15 -591 -111 -801 -145
-318 -426 -522 -830 -603 -140 -28 -149 -29 -234 -37 -42 -3 -94 -8 -116 -10
-77 -6 -1707 -6 -1713 1 -6 6 -12 2542 -6 2555 3 8 1614 4 1724 -4z"/>
</g>
</svg>
